<svg width="49" height="45" viewBox="0 0 49 45" fill="none" xmlns="http://www.w3.org/2000/svg">
<path d="M40.2766 14.8987C39.7595 14.7214 39.2381 14.5572 38.7127 14.4062C38.8009 14.0459 38.8822 13.69 38.9543 13.3403C40.1383 7.59828 39.3643 2.97237 36.7205 1.4493C34.1857 -0.010815 30.0403 1.51169 25.8536 5.15193C25.441 5.51133 25.0376 5.88109 24.6436 6.26086C24.3799 6.00833 24.1116 5.76069 23.8387 5.51809C19.4509 1.62584 15.0528 -0.0146075 12.4119 1.51283C9.87937 2.97749 9.12946 7.32617 10.1954 12.768C10.3014 13.307 10.4212 13.8432 10.5545 14.3761C9.93194 14.5528 9.33122 14.7409 8.75631 14.9411C3.61193 16.7331 0.32666 19.5413 0.32666 22.4541C0.32666 25.4625 3.85355 28.48 9.21165 30.3097C9.64604 30.4575 10.084 30.5943 10.5253 30.7203C10.382 31.2942 10.2548 31.872 10.1438 32.4531C9.12757 37.8005 9.92112 42.0464 12.4468 43.5018C15.0554 45.0047 19.4338 43.4601 23.6969 39.7368C24.0426 39.4341 24.3807 39.1228 24.7108 38.8032C25.1374 39.2145 25.5754 39.6137 26.0243 40.0005C30.154 43.5507 34.2324 44.9843 36.7556 43.5249C39.3618 42.0176 40.2089 37.4563 39.1092 31.9069C39.0225 31.4722 38.9254 31.0396 38.8178 30.6095C39.1253 30.5185 39.4271 30.4248 39.7213 30.3274C45.2916 28.4836 48.9158 25.5027 48.9158 22.4541C48.9158 19.5307 45.5245 16.7035 40.2766 14.8987ZM39.0686 28.359C38.8028 28.4468 38.5303 28.5316 38.2524 28.6141C37.6375 26.6691 36.8076 24.601 35.792 22.4642C36.7611 20.3783 37.5591 18.3366 38.1568 16.4043C38.6538 16.548 39.1361 16.6995 39.6011 16.8594C44.0975 18.406 46.8402 20.6923 46.8402 22.4541C46.8402 24.3306 43.8781 26.7668 39.0686 28.359ZM37.073 32.3097C37.5593 34.7635 37.6285 36.9821 37.3064 38.7166C37.0172 40.2751 36.4353 41.3141 35.7155 41.7303C34.1844 42.6158 30.9098 41.4648 27.3781 38.4285C26.9606 38.0689 26.5532 37.6977 26.1564 37.3154C27.5256 35.8195 28.8939 34.0804 30.2293 32.1489C32.5783 31.9407 34.7975 31.6001 36.8099 31.1354C36.9069 31.5247 36.9946 31.9162 37.073 32.3097ZM16.8918 41.5773C15.3958 42.105 14.2042 42.1202 13.4839 41.7053C11.9512 40.8222 11.3141 37.4129 12.1832 32.8399C12.2865 32.2995 12.4048 31.7621 12.5379 31.2283C14.5282 31.6682 16.7312 31.9845 19.0857 32.1753C20.4302 34.0653 21.838 35.8024 23.2568 37.3236C22.9553 37.6151 22.6466 37.8991 22.3311 38.1754C20.4458 39.8217 18.5567 40.9898 16.8918 41.5773ZM9.88316 28.3475C7.51387 27.5383 5.55721 26.4869 4.21607 25.3395C3.01083 24.3085 2.40252 23.2847 2.40252 22.4541C2.40252 20.6864 5.04019 18.4318 9.4396 16.8994C9.97351 16.7136 10.5323 16.5382 11.1121 16.3736C11.7203 18.3495 12.5178 20.4154 13.4803 22.5045C12.5053 24.6246 11.6963 26.7235 11.0823 28.7227C10.6796 28.6075 10.2797 28.4824 9.88316 28.3475ZM12.2325 12.3696C11.3194 7.70732 11.9258 4.19034 13.452 3.30763C15.0775 2.36747 18.6719 3.70793 22.4606 7.06885C22.7076 7.28851 22.9507 7.51262 23.1896 7.74107C21.7778 9.25561 20.383 10.9799 19.0504 12.8587C16.7652 13.0703 14.5777 13.4101 12.5666 13.8654C12.4427 13.3698 12.3313 12.8711 12.2325 12.3698V12.3696ZM33.1917 17.5403C32.7167 16.7206 32.2241 15.9111 31.7141 15.1126C33.2644 15.3085 34.7498 15.5684 36.1447 15.8862C35.726 17.2273 35.204 18.6292 34.5896 20.0665C34.1405 19.2153 33.6745 18.373 33.1917 17.5403ZM24.6446 9.22318C25.602 10.2595 26.5608 11.4164 27.504 12.6717C25.5908 12.5814 23.6744 12.5811 21.7611 12.6706C22.7052 11.4268 23.6722 10.2714 24.6446 9.22318ZM16.0426 17.5546C15.5659 18.3805 15.1085 19.2175 14.6709 20.0648C14.0666 18.6326 13.5494 17.2242 13.1271 15.8642C14.5134 15.5544 15.9917 15.3011 17.5322 15.1088C17.0166 15.9122 16.5199 16.7276 16.0426 17.5544V17.5546ZM17.5764 29.947C15.9849 29.7695 14.4843 29.5292 13.0984 29.2277C13.5274 27.8435 14.056 26.4051 14.6734 24.9422C15.1127 25.7901 15.572 26.6276 16.0508 27.454C16.5431 28.3035 17.0529 29.1356 17.5764 29.947ZM24.7019 35.831C23.718 34.7707 22.7367 33.5975 21.7784 32.3357C22.7088 32.3721 23.6572 32.3907 24.6213 32.3907C25.6116 32.3907 26.5906 32.3685 27.5543 32.3256C26.6081 33.6102 25.6528 34.7851 24.7019 35.831ZM34.6092 24.8675C35.2587 26.3465 35.8061 27.7773 36.2407 29.1378C34.832 29.4591 33.3109 29.7177 31.7082 29.9098C32.2218 29.0964 32.7191 28.2729 33.1999 27.4397C33.6887 26.5929 34.1586 25.7352 34.6092 24.8675ZM31.4019 26.4036C30.6659 27.681 29.8885 28.9342 29.071 30.1611C27.59 30.2658 26.1059 30.3179 24.6213 30.3171C23.1091 30.3171 21.6383 30.2701 20.222 30.1783C19.3832 28.9542 18.5909 27.6989 17.847 26.415H17.8472C17.1069 25.1379 16.4153 23.8332 15.774 22.5036C16.4137 21.1737 17.1031 19.8684 17.841 18.5903L17.8408 18.5905C18.5784 17.3121 19.3643 16.0621 20.1968 14.8433C21.6417 14.7341 23.1235 14.6772 24.6211 14.6772H24.6213C26.1256 14.6772 27.6093 14.7346 29.0539 14.8446C29.878 16.0616 30.6589 17.3073 31.3951 18.5793C32.1354 19.8546 32.834 21.1536 33.4897 22.4742C32.8407 23.8084 32.1443 25.119 31.4019 26.4036ZM35.6838 3.24581C37.3108 4.18332 37.9436 7.96388 36.9213 12.9216C36.856 13.2379 36.7828 13.5601 36.7031 13.8868C34.687 13.4219 32.498 13.0762 30.2062 12.8613C28.8711 10.9619 27.4876 9.23494 26.0989 7.73993C26.4628 7.38941 26.8355 7.04798 27.2164 6.71596C30.8037 3.59719 34.1563 2.36576 35.6838 3.24581ZM24.6213 18.1193C27.0175 18.1193 28.9601 20.0601 28.9601 22.4541C28.9601 24.8481 27.0175 26.7889 24.6213 26.7889C22.225 26.7889 20.2824 24.8481 20.2824 22.4541C20.2824 20.0601 22.225 18.1193 24.6213 18.1193Z" fill="#00D8FF"/>
</svg>
